<mxfile host="65bd71144e">
    <diagram id="PPZ3mG58t4O54c5jpOLh" name="Page-1">
        <mxGraphModel dx="3587" dy="1553" grid="1" gridSize="10" guides="1" tooltips="1" connect="1" arrows="1" fold="1" page="1" pageScale="1" pageWidth="850" pageHeight="1100" math="0" shadow="0">
            <root>
                <mxCell id="0"/>
                <mxCell id="1" parent="0"/>
                <mxCell id="46" value="Users" style="shape=table;startSize=90;container=1;collapsible=1;childLayout=tableLayout;fixedRows=1;rowLines=0;fontStyle=1;align=center;resizeLast=1;fontSize=34;" vertex="1" parent="1">
                    <mxGeometry x="-695" y="80" width="760" height="1040" as="geometry"/>
                </mxCell>
                <mxCell id="47" value="" style="shape=tableRow;horizontal=0;startSize=0;swimlaneHead=0;swimlaneBody=0;fillColor=none;collapsible=0;dropTarget=0;points=[[0,0.5],[1,0.5]];portConstraint=eastwest;top=0;left=0;right=0;bottom=0;fontSize=34;" vertex="1" parent="46">
                    <mxGeometry y="90" width="760" height="90" as="geometry"/>
                </mxCell>
                <mxCell id="48" value="" style="shape=partialRectangle;connectable=0;top=0;left=0;bottom=0;right=0;fontStyle=1;overflow=hidden;fontSize=34;" vertex="1" parent="47">
                    <mxGeometry width="130" height="90" as="geometry">
                        <mxRectangle width="130" height="90" as="alternateBounds"/>
                    </mxGeometry>
                </mxCell>
                <mxCell id="49" value="    id                                     String  pk" style="shape=partialRectangle;connectable=0;top=0;left=0;bottom=0;right=0;align=left;spacingLeft=6;fontStyle=1;overflow=hidden;fontSize=34;" vertex="1" parent="47">
                    <mxGeometry x="130" width="630" height="90" as="geometry">
                        <mxRectangle width="630" height="90" as="alternateBounds"/>
                    </mxGeometry>
                </mxCell>
                <mxCell id="50" value="" style="shape=tableRow;horizontal=0;startSize=0;swimlaneHead=0;swimlaneBody=0;fillColor=none;collapsible=0;dropTarget=0;points=[[0,0.5],[1,0.5]];portConstraint=eastwest;top=0;left=0;right=0;bottom=1;fontSize=34;" vertex="1" parent="46">
                    <mxGeometry y="180" width="760" height="100" as="geometry"/>
                </mxCell>
                <mxCell id="51" value="" style="shape=partialRectangle;connectable=0;top=0;left=0;bottom=0;right=0;fontStyle=1;overflow=hidden;fontSize=34;" vertex="1" parent="50">
                    <mxGeometry width="130" height="100" as="geometry">
                        <mxRectangle width="130" height="100" as="alternateBounds"/>
                    </mxGeometry>
                </mxCell>
                <mxCell id="52" value="    Username                             String" style="shape=partialRectangle;connectable=0;top=0;left=0;bottom=0;right=0;align=left;spacingLeft=6;fontStyle=1;overflow=hidden;fontSize=34;" vertex="1" parent="50">
                    <mxGeometry x="130" width="630" height="100" as="geometry">
                        <mxRectangle width="630" height="100" as="alternateBounds"/>
                    </mxGeometry>
                </mxCell>
                <mxCell id="56" value="" style="shape=tableRow;horizontal=0;startSize=0;swimlaneHead=0;swimlaneBody=0;fillColor=none;collapsible=0;dropTarget=0;points=[[0,0.5],[1,0.5]];portConstraint=eastwest;top=0;left=0;right=0;bottom=0;fontSize=34;" vertex="1" parent="46">
                    <mxGeometry y="280" width="760" height="110" as="geometry"/>
                </mxCell>
                <mxCell id="57" value="" style="shape=partialRectangle;connectable=0;top=0;left=0;bottom=0;right=0;editable=1;overflow=hidden;fontSize=34;" vertex="1" parent="56">
                    <mxGeometry width="130" height="110" as="geometry">
                        <mxRectangle width="130" height="110" as="alternateBounds"/>
                    </mxGeometry>
                </mxCell>
                <mxCell id="58" value="    email                                        String" style="shape=partialRectangle;connectable=0;top=0;left=0;bottom=0;right=0;align=left;spacingLeft=6;overflow=hidden;fontSize=34;fontStyle=1;" vertex="1" parent="56">
                    <mxGeometry x="130" width="630" height="110" as="geometry">
                        <mxRectangle width="630" height="110" as="alternateBounds"/>
                    </mxGeometry>
                </mxCell>
                <mxCell id="53" value="" style="shape=tableRow;horizontal=0;startSize=0;swimlaneHead=0;swimlaneBody=0;fillColor=none;collapsible=0;dropTarget=0;points=[[0,0.5],[1,0.5]];portConstraint=eastwest;top=0;left=0;right=0;bottom=0;fontSize=34;" vertex="1" parent="46">
                    <mxGeometry y="390" width="760" height="130" as="geometry"/>
                </mxCell>
                <mxCell id="54" value="" style="shape=partialRectangle;connectable=0;top=0;left=0;bottom=0;right=0;editable=1;overflow=hidden;fontSize=34;" vertex="1" parent="53">
                    <mxGeometry width="130" height="130" as="geometry">
                        <mxRectangle width="130" height="130" as="alternateBounds"/>
                    </mxGeometry>
                </mxCell>
                <mxCell id="55" value="    password                               String" style="shape=partialRectangle;connectable=0;top=0;left=0;bottom=0;right=0;align=left;spacingLeft=6;overflow=hidden;fontSize=34;fontStyle=1" vertex="1" parent="53">
                    <mxGeometry x="130" width="630" height="130" as="geometry">
                        <mxRectangle width="630" height="130" as="alternateBounds"/>
                    </mxGeometry>
                </mxCell>
                <mxCell id="68" value="" style="shape=tableRow;horizontal=0;startSize=0;swimlaneHead=0;swimlaneBody=0;fillColor=none;collapsible=0;dropTarget=0;points=[[0,0.5],[1,0.5]];portConstraint=eastwest;top=0;left=0;right=0;bottom=0;fontSize=34;" vertex="1" parent="46">
                    <mxGeometry y="520" width="760" height="130" as="geometry"/>
                </mxCell>
                <mxCell id="69" value="" style="shape=partialRectangle;connectable=0;top=0;left=0;bottom=0;right=0;editable=1;overflow=hidden;fontSize=34;" vertex="1" parent="68">
                    <mxGeometry width="130" height="130" as="geometry">
                        <mxRectangle width="130" height="130" as="alternateBounds"/>
                    </mxGeometry>
                </mxCell>
                <mxCell id="70" value="    bio                                          String" style="shape=partialRectangle;connectable=0;top=0;left=0;bottom=0;right=0;align=left;spacingLeft=6;overflow=hidden;fontSize=34;fontStyle=1" vertex="1" parent="68">
                    <mxGeometry x="130" width="630" height="130" as="geometry">
                        <mxRectangle width="630" height="130" as="alternateBounds"/>
                    </mxGeometry>
                </mxCell>
                <mxCell id="84" value="Posts" style="shape=table;startSize=100;container=1;collapsible=1;childLayout=tableLayout;fixedRows=1;rowLines=0;fontStyle=1;align=center;resizeLast=1;fontSize=34;" vertex="1" parent="1">
                    <mxGeometry x="1275" y="70" width="760" height="1040" as="geometry"/>
                </mxCell>
                <mxCell id="85" value="" style="shape=tableRow;horizontal=0;startSize=0;swimlaneHead=0;swimlaneBody=0;fillColor=none;collapsible=0;dropTarget=0;points=[[0,0.5],[1,0.5]];portConstraint=eastwest;top=0;left=0;right=0;bottom=0;fontSize=34;" vertex="1" parent="84">
                    <mxGeometry y="100" width="760" height="90" as="geometry"/>
                </mxCell>
                <mxCell id="86" value="" style="shape=partialRectangle;connectable=0;top=0;left=0;bottom=0;right=0;fontStyle=1;overflow=hidden;fontSize=34;" vertex="1" parent="85">
                    <mxGeometry width="130" height="90" as="geometry">
                        <mxRectangle width="130" height="90" as="alternateBounds"/>
                    </mxGeometry>
                </mxCell>
                <mxCell id="87" value="    id                                      String  pk" style="shape=partialRectangle;connectable=0;top=0;left=0;bottom=0;right=0;align=left;spacingLeft=6;fontStyle=1;overflow=hidden;fontSize=34;" vertex="1" parent="85">
                    <mxGeometry x="130" width="630" height="90" as="geometry">
                        <mxRectangle width="630" height="90" as="alternateBounds"/>
                    </mxGeometry>
                </mxCell>
                <mxCell id="88" value="" style="shape=tableRow;horizontal=0;startSize=0;swimlaneHead=0;swimlaneBody=0;fillColor=none;collapsible=0;dropTarget=0;points=[[0,0.5],[1,0.5]];portConstraint=eastwest;top=0;left=0;right=0;bottom=1;fontSize=34;" vertex="1" parent="84">
                    <mxGeometry y="190" width="760" height="100" as="geometry"/>
                </mxCell>
                <mxCell id="89" value="" style="shape=partialRectangle;connectable=0;top=0;left=0;bottom=0;right=0;fontStyle=1;overflow=hidden;fontSize=34;" vertex="1" parent="88">
                    <mxGeometry width="130" height="100" as="geometry">
                        <mxRectangle width="130" height="100" as="alternateBounds"/>
                    </mxGeometry>
                </mxCell>
                <mxCell id="90" value="    title                                        String" style="shape=partialRectangle;connectable=0;top=0;left=0;bottom=0;right=0;align=left;spacingLeft=6;fontStyle=1;overflow=hidden;fontSize=34;" vertex="1" parent="88">
                    <mxGeometry x="130" width="630" height="100" as="geometry">
                        <mxRectangle width="630" height="100" as="alternateBounds"/>
                    </mxGeometry>
                </mxCell>
                <mxCell id="91" value="" style="shape=tableRow;horizontal=0;startSize=0;swimlaneHead=0;swimlaneBody=0;fillColor=none;collapsible=0;dropTarget=0;points=[[0,0.5],[1,0.5]];portConstraint=eastwest;top=0;left=0;right=0;bottom=0;fontSize=34;" vertex="1" parent="84">
                    <mxGeometry y="290" width="760" height="110" as="geometry"/>
                </mxCell>
                <mxCell id="92" value="" style="shape=partialRectangle;connectable=0;top=0;left=0;bottom=0;right=0;editable=1;overflow=hidden;fontSize=34;" vertex="1" parent="91">
                    <mxGeometry width="130" height="110" as="geometry">
                        <mxRectangle width="130" height="110" as="alternateBounds"/>
                    </mxGeometry>
                </mxCell>
                <mxCell id="93" value="    content                                  Text" style="shape=partialRectangle;connectable=0;top=0;left=0;bottom=0;right=0;align=left;spacingLeft=6;overflow=hidden;fontSize=34;fontStyle=1;" vertex="1" parent="91">
                    <mxGeometry x="130" width="630" height="110" as="geometry">
                        <mxRectangle width="630" height="110" as="alternateBounds"/>
                    </mxGeometry>
                </mxCell>
                <mxCell id="94" value="" style="shape=tableRow;horizontal=0;startSize=0;swimlaneHead=0;swimlaneBody=0;fillColor=none;collapsible=0;dropTarget=0;points=[[0,0.5],[1,0.5]];portConstraint=eastwest;top=0;left=0;right=0;bottom=0;fontSize=34;" vertex="1" parent="84">
                    <mxGeometry y="400" width="760" height="130" as="geometry"/>
                </mxCell>
                <mxCell id="95" value="" style="shape=partialRectangle;connectable=0;top=0;left=0;bottom=0;right=0;editable=1;overflow=hidden;fontSize=34;" vertex="1" parent="94">
                    <mxGeometry width="130" height="130" as="geometry">
                        <mxRectangle width="130" height="130" as="alternateBounds"/>
                    </mxGeometry>
                </mxCell>
                <mxCell id="96" value="    publishedAt                    Timestamp" style="shape=partialRectangle;connectable=0;top=0;left=0;bottom=0;right=0;align=left;spacingLeft=6;overflow=hidden;fontSize=34;fontStyle=1" vertex="1" parent="94">
                    <mxGeometry x="130" width="630" height="130" as="geometry">
                        <mxRectangle width="630" height="130" as="alternateBounds"/>
                    </mxGeometry>
                </mxCell>
                <mxCell id="97" value="" style="shape=tableRow;horizontal=0;startSize=0;swimlaneHead=0;swimlaneBody=0;fillColor=none;collapsible=0;dropTarget=0;points=[[0,0.5],[1,0.5]];portConstraint=eastwest;top=0;left=0;right=0;bottom=0;fontSize=34;" vertex="1" parent="84">
                    <mxGeometry y="530" width="760" height="130" as="geometry"/>
                </mxCell>
                <mxCell id="98" value="" style="shape=partialRectangle;connectable=0;top=0;left=0;bottom=0;right=0;editable=1;overflow=hidden;fontSize=34;" vertex="1" parent="97">
                    <mxGeometry width="130" height="130" as="geometry">
                        <mxRectangle width="130" height="130" as="alternateBounds"/>
                    </mxGeometry>
                </mxCell>
                <mxCell id="99" value="    updatedAt                       Timestamp" style="shape=partialRectangle;connectable=0;top=0;left=0;bottom=0;right=0;align=left;spacingLeft=6;overflow=hidden;fontSize=34;fontStyle=1" vertex="1" parent="97">
                    <mxGeometry x="130" width="630" height="130" as="geometry">
                        <mxRectangle width="630" height="130" as="alternateBounds"/>
                    </mxGeometry>
                </mxCell>
                <mxCell id="120" value="    category                                 String" style="shape=partialRectangle;connectable=0;top=0;left=0;bottom=0;right=0;align=left;spacingLeft=6;overflow=hidden;fontSize=34;fontStyle=1" vertex="1" parent="1">
                    <mxGeometry x="1405" y="860" width="630" height="130" as="geometry">
                        <mxRectangle width="630" height="130" as="alternateBounds"/>
                    </mxGeometry>
                </mxCell>
                <mxCell id="121" value="    userId                                     String" style="shape=partialRectangle;connectable=0;top=0;left=0;bottom=0;right=0;align=left;spacingLeft=6;overflow=hidden;fontSize=34;fontStyle=1" vertex="1" parent="1">
                    <mxGeometry x="1405" y="730" width="630" height="130" as="geometry">
                        <mxRectangle width="630" height="130" as="alternateBounds"/>
                    </mxGeometry>
                </mxCell>
                <mxCell id="122" value="" style="shape=partialRectangle;connectable=0;top=0;left=0;bottom=0;right=0;editable=1;overflow=hidden;fontSize=34;" vertex="1" parent="1">
                    <mxGeometry x="1275" y="730" width="130" height="130" as="geometry">
                        <mxRectangle width="130" height="130" as="alternateBounds"/>
                    </mxGeometry>
                </mxCell>
                <mxCell id="123" value="" style="shape=partialRectangle;connectable=0;top=0;left=0;bottom=0;right=0;editable=1;overflow=hidden;fontSize=34;" vertex="1" parent="1">
                    <mxGeometry x="1275" y="860" width="130" height="130" as="geometry">
                        <mxRectangle width="130" height="130" as="alternateBounds"/>
                    </mxGeometry>
                </mxCell>
                <mxCell id="124" value="Comments" style="shape=table;startSize=100;container=1;collapsible=1;childLayout=tableLayout;fixedRows=1;rowLines=0;fontStyle=1;align=center;resizeLast=1;fontSize=34;" vertex="1" parent="1">
                    <mxGeometry x="280" y="1270" width="760" height="1040" as="geometry"/>
                </mxCell>
                <mxCell id="125" value="" style="shape=tableRow;horizontal=0;startSize=0;swimlaneHead=0;swimlaneBody=0;fillColor=none;collapsible=0;dropTarget=0;points=[[0,0.5],[1,0.5]];portConstraint=eastwest;top=0;left=0;right=0;bottom=0;fontSize=34;" vertex="1" parent="124">
                    <mxGeometry y="100" width="760" height="90" as="geometry"/>
                </mxCell>
                <mxCell id="126" value="" style="shape=partialRectangle;connectable=0;top=0;left=0;bottom=0;right=0;fontStyle=1;overflow=hidden;fontSize=34;" vertex="1" parent="125">
                    <mxGeometry width="130" height="90" as="geometry">
                        <mxRectangle width="130" height="90" as="alternateBounds"/>
                    </mxGeometry>
                </mxCell>
                <mxCell id="127" value="    id                                      String  pk" style="shape=partialRectangle;connectable=0;top=0;left=0;bottom=0;right=0;align=left;spacingLeft=6;fontStyle=1;overflow=hidden;fontSize=34;" vertex="1" parent="125">
                    <mxGeometry x="130" width="630" height="90" as="geometry">
                        <mxRectangle width="630" height="90" as="alternateBounds"/>
                    </mxGeometry>
                </mxCell>
                <mxCell id="128" value="" style="shape=tableRow;horizontal=0;startSize=0;swimlaneHead=0;swimlaneBody=0;fillColor=none;collapsible=0;dropTarget=0;points=[[0,0.5],[1,0.5]];portConstraint=eastwest;top=0;left=0;right=0;bottom=1;fontSize=34;" vertex="1" parent="124">
                    <mxGeometry y="190" width="760" height="100" as="geometry"/>
                </mxCell>
                <mxCell id="129" value="" style="shape=partialRectangle;connectable=0;top=0;left=0;bottom=0;right=0;fontStyle=1;overflow=hidden;fontSize=34;" vertex="1" parent="128">
                    <mxGeometry width="130" height="100" as="geometry">
                        <mxRectangle width="130" height="100" as="alternateBounds"/>
                    </mxGeometry>
                </mxCell>
                <mxCell id="130" value="    text                                        Text" style="shape=partialRectangle;connectable=0;top=0;left=0;bottom=0;right=0;align=left;spacingLeft=6;fontStyle=1;overflow=hidden;fontSize=34;" vertex="1" parent="128">
                    <mxGeometry x="130" width="630" height="100" as="geometry">
                        <mxRectangle width="630" height="100" as="alternateBounds"/>
                    </mxGeometry>
                </mxCell>
                <mxCell id="131" value="" style="shape=tableRow;horizontal=0;startSize=0;swimlaneHead=0;swimlaneBody=0;fillColor=none;collapsible=0;dropTarget=0;points=[[0,0.5],[1,0.5]];portConstraint=eastwest;top=0;left=0;right=0;bottom=0;fontSize=34;" vertex="1" parent="124">
                    <mxGeometry y="290" width="760" height="110" as="geometry"/>
                </mxCell>
                <mxCell id="132" value="" style="shape=partialRectangle;connectable=0;top=0;left=0;bottom=0;right=0;editable=1;overflow=hidden;fontSize=34;" vertex="1" parent="131">
                    <mxGeometry width="130" height="110" as="geometry">
                        <mxRectangle width="130" height="110" as="alternateBounds"/>
                    </mxGeometry>
                </mxCell>
                <mxCell id="133" value="    userId                                  Text" style="shape=partialRectangle;connectable=0;top=0;left=0;bottom=0;right=0;align=left;spacingLeft=6;overflow=hidden;fontSize=34;fontStyle=1;" vertex="1" parent="131">
                    <mxGeometry x="130" width="630" height="110" as="geometry">
                        <mxRectangle width="630" height="110" as="alternateBounds"/>
                    </mxGeometry>
                </mxCell>
                <mxCell id="134" value="" style="shape=tableRow;horizontal=0;startSize=0;swimlaneHead=0;swimlaneBody=0;fillColor=none;collapsible=0;dropTarget=0;points=[[0,0.5],[1,0.5]];portConstraint=eastwest;top=0;left=0;right=0;bottom=0;fontSize=34;" vertex="1" parent="124">
                    <mxGeometry y="400" width="760" height="130" as="geometry"/>
                </mxCell>
                <mxCell id="135" value="" style="shape=partialRectangle;connectable=0;top=0;left=0;bottom=0;right=0;editable=1;overflow=hidden;fontSize=34;" vertex="1" parent="134">
                    <mxGeometry width="130" height="130" as="geometry">
                        <mxRectangle width="130" height="130" as="alternateBounds"/>
                    </mxGeometry>
                </mxCell>
                <mxCell id="136" value="    createdAt                    Timestamp" style="shape=partialRectangle;connectable=0;top=0;left=0;bottom=0;right=0;align=left;spacingLeft=6;overflow=hidden;fontSize=34;fontStyle=1" vertex="1" parent="134">
                    <mxGeometry x="130" width="630" height="130" as="geometry">
                        <mxRectangle width="630" height="130" as="alternateBounds"/>
                    </mxGeometry>
                </mxCell>
                <mxCell id="137" value="" style="shape=tableRow;horizontal=0;startSize=0;swimlaneHead=0;swimlaneBody=0;fillColor=none;collapsible=0;dropTarget=0;points=[[0,0.5],[1,0.5]];portConstraint=eastwest;top=0;left=0;right=0;bottom=0;fontSize=34;" vertex="1" parent="124">
                    <mxGeometry y="530" width="760" height="130" as="geometry"/>
                </mxCell>
                <mxCell id="138" value="" style="shape=partialRectangle;connectable=0;top=0;left=0;bottom=0;right=0;editable=1;overflow=hidden;fontSize=34;" vertex="1" parent="137">
                    <mxGeometry width="130" height="130" as="geometry">
                        <mxRectangle width="130" height="130" as="alternateBounds"/>
                    </mxGeometry>
                </mxCell>
                <mxCell id="139" value="    updatedAt                       Timestamp" style="shape=partialRectangle;connectable=0;top=0;left=0;bottom=0;right=0;align=left;spacingLeft=6;overflow=hidden;fontSize=34;fontStyle=1" vertex="1" parent="137">
                    <mxGeometry x="130" width="630" height="130" as="geometry">
                        <mxRectangle width="630" height="130" as="alternateBounds"/>
                    </mxGeometry>
                </mxCell>
                <mxCell id="140" value="" style="shape=tableRow;horizontal=0;startSize=0;swimlaneHead=0;swimlaneBody=0;fillColor=none;collapsible=0;dropTarget=0;points=[[0,0.5],[1,0.5]];portConstraint=eastwest;top=0;left=0;right=0;bottom=0;fontSize=34;" vertex="1" parent="1">
                    <mxGeometry x="280" y="1930" width="760" height="110" as="geometry"/>
                </mxCell>
                <mxCell id="141" value="" style="shape=partialRectangle;connectable=0;top=0;left=0;bottom=0;right=0;editable=1;overflow=hidden;fontSize=34;" vertex="1" parent="140">
                    <mxGeometry width="130" height="110" as="geometry">
                        <mxRectangle width="130" height="110" as="alternateBounds"/>
                    </mxGeometry>
                </mxCell>
                <mxCell id="142" value="    postId                                  Text" style="shape=partialRectangle;connectable=0;top=0;left=0;bottom=0;right=0;align=left;spacingLeft=6;overflow=hidden;fontSize=34;fontStyle=1;" vertex="1" parent="140">
                    <mxGeometry x="130" width="630" height="110" as="geometry">
                        <mxRectangle width="630" height="110" as="alternateBounds"/>
                    </mxGeometry>
                </mxCell>
                <mxCell id="143" style="edgeStyle=none;html=1;exitX=1;exitY=0.5;exitDx=0;exitDy=0;fontSize=34;" edge="1" parent="1" source="47">
                    <mxGeometry relative="1" as="geometry">
                        <mxPoint x="280" y="1610" as="targetPoint"/>
                        <Array as="points">
                            <mxPoint x="160" y="215"/>
                            <mxPoint x="160" y="1610"/>
                        </Array>
                    </mxGeometry>
                </mxCell>
                <mxCell id="144" value="" style="shape=tableRow;horizontal=0;startSize=0;swimlaneHead=0;swimlaneBody=0;fillColor=none;collapsible=0;dropTarget=0;points=[[0,0.5],[1,0.5]];portConstraint=eastwest;top=0;left=0;right=0;bottom=0;fontSize=34;" vertex="1" parent="1">
                    <mxGeometry x="-680" y="610" width="760" height="130" as="geometry"/>
                </mxCell>
                <mxCell id="145" value="" style="shape=partialRectangle;connectable=0;top=0;left=0;bottom=0;right=0;editable=1;overflow=hidden;fontSize=34;" vertex="1" parent="144">
                    <mxGeometry width="130" height="130" as="geometry">
                        <mxRectangle width="130" height="130" as="alternateBounds"/>
                    </mxGeometry>
                </mxCell>
                <mxCell id="147" value="" style="shape=tableRow;horizontal=0;startSize=0;swimlaneHead=0;swimlaneBody=0;fillColor=none;collapsible=0;dropTarget=0;points=[[0,0.5],[1,0.5]];portConstraint=eastwest;top=0;left=0;right=0;bottom=0;fontSize=34;" vertex="1" parent="1">
                    <mxGeometry x="-670" y="620" width="760" height="130" as="geometry"/>
                </mxCell>
                <mxCell id="149" value="                 createdAt                       Timestamp" style="shape=partialRectangle;connectable=0;top=0;left=0;bottom=0;right=0;align=left;spacingLeft=6;overflow=hidden;fontSize=34;fontStyle=1" vertex="1" parent="1">
                    <mxGeometry x="-690" y="730" width="750" height="130" as="geometry">
                        <mxRectangle width="630" height="130" as="alternateBounds"/>
                    </mxGeometry>
                </mxCell>
                <mxCell id="150" style="edgeStyle=none;html=1;exitX=0;exitY=0.5;exitDx=0;exitDy=0;fontSize=34;entryX=1;entryY=0.5;entryDx=0;entryDy=0;" edge="1" parent="1" source="85" target="140">
                    <mxGeometry relative="1" as="geometry">
                        <mxPoint x="1120" y="2032.2222900390625" as="targetPoint"/>
                        <Array as="points">
                            <mxPoint x="1110" y="215"/>
                            <mxPoint x="1120" y="1985"/>
                        </Array>
                    </mxGeometry>
                </mxCell>
            </root>
        </mxGraphModel>
    </diagram>
</mxfile>